Patient4_TMGait_0pt4_02_right_15_EMG.mot
version=1
nRows=16
nColumns=33
inDegrees=no
endheader
time	1LAddLong	2LGlutMax	3LGlutMed	4LIliopsoas	5LSemiMemb	6LBicFemLong	7LRecFem	8LVastMed	9LVastLat	10LGasMed	11LTibAnt	12lTibPost	13LPeroneusLong	14LSol	15LExtDigLong	16LFlexDigLong	17RAddLong	18RGlutMax	19RGlutMed	20RIliopsoas	21RSemiMemb	22RBicFemLong	23RRecFem	24RVastMed	25RVastLat	26RGasMed	27RTibAnt	28RTibPost	29RPeroneusLong	30RSol	31RExtDigLong	32RFlexDigLong
20.733	0.007324	-0.14114	-0.084076	0.021667	0.021362	-0.036774	-0.045166	-0.000458	0.058289	-0.015869	0.26703	0.003662	0.21255	-0.10284	0.040894	0.02182	-0.036469	-0.13733	-0.084991	0.054016	-0.050812	0.1535	0.04425	0.049286	0.030823	0.025024	0.1384	-0.000763	0.12619	-0.048676	-0.005951	-0.003815
20.734	-0.012207	-0.10269	-0.06958	0.036926	0.018005	0.022736	0.10819	0.012207	-0.19134	-0.062866	-0.087738	0.006104	0.33875	0.05249	0.17838	0.023193	-0.011749	-0.072479	0.18829	0.087738	-0.016632	0.17899	0.10361	0.015106	0.011139	0.030212	0.083618	-0.002594	-0.33325	-0.065308	-0.003204	-0.010681
20.735	0.015106	-0.079803	-0.006256	0.011902	0.011292	0.060577	0.066223	0.005951	-0.32623	-0.034637	-0.21164	0.011902	-0.001221	0.075684	0.042419	-0.00946	0.000763	-0.11017	-0.016632	0.10956	-0.016785	0.24231	0.12146	-0.02182	0.017395	0.025482	-0.064087	-0.006866	-0.063782	-0.047455	-0.005035	-0.002594
20.736	-0.015564	-0.062714	0.053406	0.007019	-0.004425	0.066681	0.02121	0.003815	-0.25009	0.003204	0.14969	0.00351	-0.085907	0.075378	0.30807	-0.00885	0.008087	-0.071259	-0.29968	0.084076	-0.11841	0.29037	0.056	-0.043182	0.00351	0.016632	-0.088196	0.001068	0.019379	0.053253	-0.00351	-0.01358
20.737	-0.004425	-0.027313	0.041046	-0.009766	-0.002441	0.066223	-0.041809	-0.010071	-0.062103	0.007935	0.19318	0.005341	0.05188	0.082092	0.080261	-0.002136	0.01236	-0.038757	0.036621	0.010376	-0.058594	0.31052	0.048218	-0.048218	-0.013275	0.016479	-0.003662	-0.007782	-0.14038	0.05722	0.000916	-0.009003
20.738	-0.013733	-0.00824	0.1445	0.014343	-0.001831	0.079651	0.031281	-0.015717	0.027466	-0.030823	-0.17532	-0.004425	0.26688	0.10239	-0.069885	0.00885	0.008087	-0.065002	0.03891	-0.060425	0.014191	0.30609	0.027008	-0.06958	-0.014343	0.022736	0.052185	-0.00885	-0.10269	0.001221	-0.004883	-0.011139
20.739	0.001831	-0.11459	0.008545	-0.005188	0.005035	0.082855	0.073853	-0.008698	0.029144	-0.02594	0.039063	0.010529	0.13748	0.11826	-0.11948	0.010529	0.010071	-0.06897	-0.01297	-0.084534	-0.086365	0.2948	0.028534	-0.099945	-0.007629	0.023499	0.051727	-0.002747	0.057678	-0.039063	-0.002441	-0.014801
20.74	-0.008087	-0.077362	0.051575	-0.001984	0.005493	0.021057	0.041199	-0.012665	0.00412	-0.003204	0.16403	0.004883	-0.095215	0.088806	0.074463	0.000458	0.030518	-0.032806	-0.04715	-0.02121	-0.16785	0.3154	-0.02655	-0.16327	-0.005798	0.02533	0.036163	-0.003815	0.03006	-0.003662	0	-0.012817
20.741	0.003662	-0.095062	-0.008392	-0.003662	0.014954	-0.089417	0.025024	-0.005951	-0.003357	0.020599	-0.14862	0.003204	-0.068512	0.043182	-0.34882	0.001831	0.028687	-0.087128	-0.25848	0.006561	-0.15991	0.41092	-0.17029	-0.1593	0.005341	0.024872	0.020905	-0.007782	0.14587	0.011749	0.000916	-0.015869
20.742	0.002747	-0.12436	-0.079041	0.006714	0.023346	-0.094147	-0.001678	-0.009308	0.025177	-0.022278	-0.18204	0.012817	-0.025482	0.072784	-0.62927	-0.001526	0.005493	-0.062256	-0.28259	-0.037079	-0.11765	0.50674	-0.12955	-0.087433	0.032501	0.025635	0.019836	-0.001221	0.22598	0.02655	0.000458	-0.018921
20.743	0.005646	-0.077972	0.009766	-0.003967	0.024719	-0.013885	0.00351	-0.010223	0.03891	-0.025787	-0.14343	0.00473	0.009918	-0.038605	-0.70084	-0.007019	-0.045624	-0.036011	-0.19028	-0.034027	0.11078	0.46341	0.16693	-0.05661	0.033264	0.021057	0.012054	-0.00412	0.21591	0.017395	0.003204	-0.01709
20.744	-0.006256	-0.095673	0.15823	0.015259	-0.004883	-0.005341	0.017853	0.003662	0.036926	-0.00412	0.1799	0.013733	0.16739	-0.033875	0.68924	-0.001373	-0.055847	-0.036163	-0.058136	-0.046844	0.23727	0.37613	0.27054	-0.035248	0.04837	0.023193	0.037079	-0.002747	0.10452	-0.003967	-0.000458	-0.011139
20.745	-0.017395	-0.078125	0.034943	0.037689	-0.039368	0.017395	0.021667	0.006866	0.033264	-0.005798	0.14923	0.000305	0.015869	0.0737	-0.18188	0.013123	-0.0177	-0.060577	-0.10986	-0.017242	0.079346	0.31738	0.14847	-0.086975	0.032196	0.029755	0.042114	0.003052	0.24979	-0.018005	-0.005188	-0.004578
20.746	-0.014954	-0.084076	-0.15961	0.021973	-0.048676	-0.076141	0.037994	0.002441	0.033569	0.005493	-0.009155	0.003052	0.005646	-0.14969	-0.4628	0.003967	-0.01236	-0.088501	-0.43472	-0.012665	0.042267	0.2887	-0.13718	-0.16129	0.023499	0.027008	0.03067	-0.004425	0.39825	-0.012512	-0.006104	0.009308
20.747	-0.010071	-0.068817	-0.23773	0.005798	-0.04364	-0.10605	0.048981	0.003815	0.045471	0.010529	-0.11673	0.006104	0.29465	-0.14587	-0.17685	-0.010986	-0.005035	-0.043182	-0.36819	-0.027466	0.03067	0.26611	-0.20508	-0.15991	0.011749	0.025787	0.068817	-0.003357	0.21774	-0.041656	-0.002899	0.010681
20.748	-0.020905	-0.066071	-0.056915	0.018005	-0.014038	-0.13992	0.085449	-0.003662	0.034027	-0.036011	-0.14862	0.007629	0.21347	-0.092621	-0.1091	0.004425	0.01297	0.014801	-0.082855	-0.041504	0.04776	0.20813	-0.28641	-0.15747	0.029602	0.031281	0.088501	0.000153	-0.075226	-0.064697	0.000916	0.020447
